<svg width="24" height="24" viewBox="0 0 24 24" fill="none" xmlns="http://www.w3.org/2000/svg">
<rect width="24" height="24" rx="12" fill="#FF6543"/>
<path d="M13.2254 8.71884H7.9615C7.46757 8.71884 7.06641 9.12 7.06641 9.61392V17.1665C7.06641 17.6604 7.46757 18.0616 7.9615 18.0616H13.2254C13.7193 18.0616 14.1205 17.6604 14.1205 17.1665V9.61392C14.1181 9.12 13.717 8.71884 13.2254 8.71884ZM13.492 17.1642C13.492 17.3126 13.3715 17.4332 13.223 17.4332H7.95918C7.81077 17.4332 7.69019 17.3126 7.69019 17.1642V9.61392C7.69019 9.46552 7.81077 9.34493 7.95918 9.34493H13.223C13.3715 9.34493 13.492 9.46552 13.492 9.61392V17.1642Z" fill="white"/>
<path d="M15.2381 6.73853H9.97423C9.48031 6.73853 9.07914 7.13969 9.07914 7.63361C9.07914 7.80753 9.21828 7.94666 9.39219 7.94666C9.56611 7.94666 9.70524 7.80753 9.70524 7.63361C9.70524 7.48521 9.82582 7.36462 9.97423 7.36462H15.2381C15.3865 7.36462 15.5071 7.48521 15.5071 7.63361V15.1862C15.5071 15.3346 15.3865 15.4552 15.2381 15.4552C15.0642 15.4552 14.925 15.5943 14.925 15.7683C14.925 15.9422 15.0642 16.0813 15.2381 16.0813C15.732 16.0813 16.1332 15.6801 16.1332 15.1862V7.63361C16.1332 7.13969 15.732 6.73853 15.2381 6.73853Z" fill="white"/>
</svg>
