<svg width="12" height="8" viewBox="0 0 12 8" fill="none" xmlns="http://www.w3.org/2000/svg">
<path fill-rule="evenodd" clip-rule="evenodd" d="M11.2221 3.70572L11.2221 3.70573C9.78819 5.61091 7.8899 6.55512 6 6.55512C4.1101 6.55512 2.21181 5.61092 0.777915 3.70575L0.777907 3.70574L0.73373 3.64706L0.777893 3.58839L0.7779 3.58838C2.21181 1.68321 4.11009 0.738999 6 0.738997C7.8899 0.738994 9.78819 1.6832 11.2221 3.58836L11.2221 3.58837L11.2663 3.64706L11.2221 3.70572ZM8.01628 6.3148C9.23047 5.87465 10.374 5.02852 11.3164 3.77639L11.4138 3.64697L11.3164 3.51752C9.37916 0.943643 6.59221 0.085295 4.08825 0.942486C6.59214 0.085451 9.37895 0.94383 11.3161 3.51762L11.4135 3.64706L11.3161 3.77648C10.3738 5.02852 9.23037 5.87463 8.01628 6.3148ZM11.9212 3.89288C12.0263 3.75336 12.0263 3.54076 11.9212 3.40124L11.692 3.09676C10.1424 1.03784 8.07539 -2.45429e-06 6 0C3.92461 2.44556e-06 1.85761 1.03784 0.307975 3.09677L0.307967 3.09678L0.0787736 3.40124C-0.0262579 3.54076 -0.0262579 3.75336 0.0787736 3.89288L0.307982 4.19735C1.85761 6.25628 3.92461 7.29412 6 7.29412C8.07539 7.29411 10.1424 6.25627 11.692 4.19733L11.9212 3.89288ZM3.98685 0.455816C2.66758 0.907445 1.4229 1.81132 0.402239 3.16744L0.173038 3.4719C0.0995473 3.56952 0.0995473 3.72441 0.173038 3.82203L0.402253 4.12651C2.42265 6.81094 5.32082 7.72329 7.93787 6.86355C5.32075 7.72344 2.42245 6.81112 0.40198 4.12661L0.172765 3.82212C0.0992744 3.7245 0.0992744 3.56962 0.172765 3.47199L0.401966 3.16753C1.4227 1.81132 2.66748 0.907414 3.98685 0.455816Z" fill="#969696"/>
<circle cx="6.00006" cy="3.64703" r="1.76471" fill="#969696"/>
</svg>
