<svg width="149" height="36" viewBox="0 0 149 36" fill="none" xmlns="http://www.w3.org/2000/svg">
<rect width="81" height="36" rx="4" fill="#FF6543"/>
<path d="M13.496 25H19.16L21.968 13.12H22.208L25.016 25H30.68L35.408 7.912H31.472L27.848 21.448H27.608L24.2 7.912H20L16.568 21.448H16.328L12.704 7.912H8.768L13.496 25ZM39.5896 25.312C41.3416 25.312 42.7576 24.664 43.5256 23.44H43.7656V25H47.3176V16.888C47.3176 14.104 45.0856 12.328 41.5816 12.328C38.1256 12.328 35.8936 14.056 35.8936 16.744H39.3736C39.3496 15.52 40.2376 14.8 41.5336 14.8C42.9496 14.8 43.7656 15.592 43.7656 16.768V17.272L41.1496 17.584C37.2856 18.064 35.3416 19.48 35.3416 21.784C35.3416 23.992 37.0696 25.312 39.5896 25.312ZM40.7656 22.984C39.5416 22.984 38.8216 22.408 38.8216 21.496C38.8216 20.656 39.4936 19.96 41.2456 19.744L43.7656 19.432V20.296C43.7656 21.832 42.5416 22.984 40.7656 22.984ZM49.868 25H53.42V18.088C53.42 16.528 54.596 15.4 56.012 15.4C57.452 15.4 58.316 16.456 58.316 17.968V25H61.868V17.464C61.868 14.512 60.02 12.352 57.236 12.352C55.748 12.352 54.572 13.048 53.66 14.44H53.42V12.712H49.868V25ZM69.4147 25.384C70.1107 25.384 71.1187 25.24 71.8147 25V22.456C71.4067 22.552 70.8787 22.624 70.5427 22.624C69.5347 22.624 68.9107 21.928 68.9107 20.896V15.304H71.7187V12.712H68.9107L68.9347 8.824H66.1507L65.4547 12.712H63.6307V15.304H65.3587V21.04C65.3587 23.632 66.9427 25.384 69.4147 25.384Z" fill="white"/>
<path d="M95.72 24.432C99.344 24.432 101.528 22.872 101.528 20.256C101.528 17.328 98.768 16.776 96.512 16.512C94.808 16.32 93.296 16.248 93.296 15.096C93.296 14.208 94.184 13.632 95.48 13.632C96.896 13.632 97.88 14.328 97.904 15.432H101.144C101.144 12.888 98.768 11.28 95.48 11.28C92.192 11.28 90.008 12.864 90.008 15.384C90.008 18.552 93.032 18.912 95.288 19.152C96.776 19.296 98.048 19.44 98.048 20.568C98.048 21.504 97.16 22.08 95.816 22.08C94.064 22.08 93.008 21.192 93.008 19.896H89.864C89.864 22.728 92.072 24.432 95.72 24.432ZM103.774 24H107.326V18.768H107.566L111.574 24H115.894L110.686 17.616L115.798 11.712H111.502L107.566 16.488H107.326V6.192H103.774V24ZM119.194 10.008C120.442 10.008 121.33 9.144 121.33 7.92C121.33 6.72 120.442 5.832 119.194 5.832C117.946 5.832 117.058 6.72 117.058 7.92C117.058 9.144 117.946 10.008 119.194 10.008ZM117.418 24H120.97V11.712H117.418V24ZM123.789 24H127.341V6.192H123.789V24ZM130.024 24H133.576V6.192H130.024V24ZM141.634 24.432C145.258 24.432 147.442 22.872 147.442 20.256C147.442 17.328 144.682 16.776 142.426 16.512C140.722 16.32 139.21 16.248 139.21 15.096C139.21 14.208 140.098 13.632 141.394 13.632C142.81 13.632 143.794 14.328 143.818 15.432H147.058C147.058 12.888 144.682 11.28 141.394 11.28C138.106 11.28 135.922 12.864 135.922 15.384C135.922 18.552 138.946 18.912 141.202 19.152C142.69 19.296 143.962 19.44 143.962 20.568C143.962 21.504 143.074 22.08 141.73 22.08C139.978 22.08 138.922 21.192 138.922 19.896H135.778C135.778 22.728 137.986 24.432 141.634 24.432Z" fill="#FF6543"/>
</svg>
