<svg width="24" height="24" viewBox="0 0 24 24" fill="none" xmlns="http://www.w3.org/2000/svg">
<path fill-rule="evenodd" clip-rule="evenodd" d="M20.0952 5.95238H3.90476C3.37878 5.95238 2.95238 6.37878 2.95238 6.90476V16.4286C2.95238 16.9546 3.37878 17.381 3.90476 17.381H20.0952C20.6212 17.381 21.0476 16.9546 21.0476 16.4286V6.90476C21.0476 6.37878 20.6212 5.95238 20.0952 5.95238ZM3.90476 5C2.85279 5 2 5.85279 2 6.90476V16.4286C2 17.4805 2.85279 18.3333 3.90476 18.3333H20.0952C21.1472 18.3333 22 17.4805 22 16.4286V6.90476C22 5.85279 21.1472 5 20.0952 5H3.90476Z" fill="#FF6543"/>
<mask id="mask0" mask-type="alpha" maskUnits="userSpaceOnUse" x="2" y="5" width="20" height="14">
<path d="M2 6.90476C2 5.85279 2.85279 5 3.90476 5H20.0952C21.1472 5 22 5.85279 22 6.90476V16.4286C22 17.4805 21.1472 18.3333 20.0952 18.3333H3.90476C2.85279 18.3333 2 17.4805 2 16.4286V6.90476Z" fill="#FF6543"/>
</mask>
<g mask="url(#mask0)">
<path fill-rule="evenodd" clip-rule="evenodd" d="M-0.784978 3.09527L10.8802 11.5791C11.5481 12.0648 12.453 12.0648 13.1209 11.5791L24.7861 3.09527L-0.784978 3.09527ZM10.3201 12.3493C11.3219 13.0779 12.6792 13.0779 13.681 12.3493L27.7148 2.14289L-3.71373 2.14289L10.3201 12.3493Z" fill="#FF6543"/>
<path fill-rule="evenodd" clip-rule="evenodd" d="M10.3921 12.0386L3.24924 17.7529L2.6543 17.0092L9.79715 11.2949L10.3921 12.0386Z" fill="#FF6543"/>
<path fill-rule="evenodd" clip-rule="evenodd" d="M14.0845 12.0386L21.2273 17.7529L21.8223 17.0092L14.6794 11.2949L14.0845 12.0386Z" fill="#FF6543"/>
</g>
</svg>
