<svg width="24" height="24" viewBox="0 0 24 24" fill="none" xmlns="http://www.w3.org/2000/svg">
<path d="M17.6569 14.3431C16.7855 13.4718 15.7484 12.8268 14.6168 12.4363C15.8288 11.6016 16.625 10.2046 16.625 8.625C16.625 6.07478 14.5502 4 12 4C9.44978 4 7.375 6.07478 7.375 8.625C7.375 10.2046 8.17122 11.6016 9.38319 12.4363C8.25162 12.8268 7.2145 13.4718 6.34316 14.3431C4.83216 15.8542 4 17.8631 4 20H5.25C5.25 16.278 8.27803 13.25 12 13.25C15.722 13.25 18.75 16.278 18.75 20H20C20 17.8631 19.1678 15.8542 17.6569 14.3431ZM12 12C10.139 12 8.625 10.486 8.625 8.625C8.625 6.764 10.139 5.25 12 5.25C13.861 5.25 15.375 6.764 15.375 8.625C15.375 10.486 13.861 12 12 12Z" fill="#1B1B1F"/>
</svg>
