<svg width="297" height="466" viewBox="0 0 297 466" fill="none" xmlns="http://www.w3.org/2000/svg">
<path fill-rule="evenodd" clip-rule="evenodd" d="M210.777 401.987C210.777 401.987 196.835 582.798 41.6707 889.909L-25 848.989C-25 848.989 95.329 592.171 139.19 391.196L210.777 401.987Z" fill="#A77178"/>
<path fill-rule="evenodd" clip-rule="evenodd" d="M38.0293 409.08C38.0293 409.08 91.988 673.548 231.712 902.68L295.443 873.721C295.443 873.721 137.013 540.339 142.001 373.936L38.0293 409.08Z" fill="#BF8B90"/>
<path fill-rule="evenodd" clip-rule="evenodd" d="M105.626 100.742C105.626 100.742 62.7637 139.8 50.2161 107.654C37.6749 75.5047 20.4042 85.1828 12.6809 68.0027C4.91018 50.721 12.0391 18.5653 46.6406 18.5653C81.2484 18.5653 90.9507 -1.53638 122.944 0.0940823C122.944 0.0940823 153.069 97.0497 105.626 100.742Z" fill="#F8E4BB"/>
<path fill-rule="evenodd" clip-rule="evenodd" d="M112.246 102.841C112.246 102.841 60.8515 76.0494 93.2622 18.2281C101.7 3.17961 125.022 -8.29709 157.027 7.80137L112.246 102.841Z" fill="#F8E4BB"/>
<path fill-rule="evenodd" clip-rule="evenodd" d="M125.201 6.24063C122.141 7.30011 119.182 8.8481 116.387 10.9512C91.4249 29.7333 100.419 73.2864 118.094 94.6188C127.876 106.429 143.452 113.274 158.225 109.702C179.827 104.475 189.172 81.8003 187.544 60.3854C186.33 44.4233 179.536 28.6579 167.95 17.933C156.376 7.22398 139.677 1.23186 125.201 6.24063Z" fill="#EEB8B2"/>
<path fill-rule="evenodd" clip-rule="evenodd" d="M151.505 52.7596C151.88 55.0372 152.024 57.3655 151.623 59.7192C151.408 60.8739 151.077 62.1015 150.258 63.069C149.439 64.0745 148.167 64.4044 147.069 64.2395C144.685 63.9 143.295 61.4988 142.478 59.4496C141.645 57.283 141.201 55.015 141.032 52.693C141.016 52.4519 141.17 52.2457 141.377 52.2267C141.57 52.2076 141.744 52.3631 141.775 52.5788L141.78 52.601C142.114 54.7771 142.655 56.9595 143.43 58.942C144.233 60.8612 145.496 62.7391 147.22 62.8913C148.051 63.0341 148.912 62.8532 149.491 62.1839C150.098 61.5337 150.443 60.5091 150.655 59.4749C151.05 57.3718 151.047 55.0848 150.873 52.8801V52.8611C150.857 52.6581 150.986 52.4836 151.163 52.4646C151.326 52.4487 151.472 52.5788 151.505 52.7596Z" fill="#172133"/>
<path fill-rule="evenodd" clip-rule="evenodd" d="M179.61 51.253C179.909 53.169 180.021 55.1071 179.761 57.0865C179.631 58.0667 179.395 59.0913 178.825 59.9985C178.265 60.9438 177.178 61.4292 176.239 61.2579C175.279 61.1119 174.444 60.3982 173.905 59.583C173.362 58.7551 172.983 57.8478 172.675 56.9279C172.078 55.0722 171.779 53.1658 171.68 51.2118C171.667 50.9739 171.821 50.7677 172.02 50.755C172.203 50.7391 172.367 50.8977 172.399 51.1103L172.402 51.1293C172.662 52.9533 173.057 54.7868 173.611 56.4775C174.184 58.108 175.104 59.786 176.388 59.9097C177.708 60.2713 178.578 58.6758 178.822 56.8867C179.084 55.1135 179.106 53.2102 179.005 51.3609V51.3418C178.994 51.1388 179.122 50.9675 179.291 50.9548C179.448 50.9422 179.586 51.0722 179.61 51.253Z" fill="#172133"/>
<path fill-rule="evenodd" clip-rule="evenodd" d="M112.243 81.1025C107.858 84.5093 100.859 85.2389 95.8544 82.752C90.8499 80.265 87.1605 74.7836 86.5188 68.8771C85.9402 63.5829 87.9699 57.8889 92.1334 55.2117C96.297 52.5312 103.053 53.5654 105.772 58.0634L112.243 81.1025Z" fill="#EEB8B2"/>
<path fill-rule="evenodd" clip-rule="evenodd" d="M140.647 146.55C145.677 145.439 150.577 142.147 155.05 138.004L155.167 73.4895L108.208 66.7266L103.719 133.925C113.532 140.76 129.399 149.033 140.647 146.55Z" fill="#EEB8B2"/>
<path fill-rule="evenodd" clip-rule="evenodd" d="M155.086 120.522L155.295 110.273C155.295 110.273 134.262 114.016 118.098 94.6187C118.098 94.6187 126.238 115.177 155.086 120.522Z" fill="#111029"/>
<path fill-rule="evenodd" clip-rule="evenodd" d="M148.434 73.607C148.067 76.132 144.672 77.7212 140.846 77.1661C137.024 76.6078 134.22 74.1113 134.587 71.5863C134.95 69.0645 138.349 67.4753 142.171 68.0336C145.996 68.5887 148.797 71.0883 148.434 73.607Z" fill="#E88881"/>
<path fill-rule="evenodd" clip-rule="evenodd" d="M166.42 73.9558L169.714 69.572L169.765 69.5434L170.15 71.6339C168.686 70.7171 167.896 69.4863 167.235 68.2809C166.59 67.0628 166.113 65.8067 165.756 64.5283C166.492 65.6195 167.333 66.6409 168.25 67.5133C169.151 68.3793 170.22 69.1089 171.146 69.2865L172.676 69.5783L171.532 71.3769L171.5 71.4245L167.024 74.5807C166.824 74.7235 166.549 74.6727 166.41 74.4729C166.296 74.3143 166.309 74.1049 166.42 73.9558Z" fill="#D2746F"/>
<path fill-rule="evenodd" clip-rule="evenodd" d="M171.582 81.1849C170.583 82.771 169.06 84.1191 167.156 84.7853C165.269 85.5085 163.006 85.4229 161.096 84.6013C159.142 83.7924 157.767 82.2698 156.607 80.7472C156.117 79.9256 155.63 79.1009 155.247 78.2444C154.963 77.3308 154.612 76.4712 154.416 75.5513L158.137 79.4498C159.449 80.5283 160.66 81.702 162.117 82.2381C164.915 83.5418 168.25 82.8757 171.582 81.1849Z" fill="#D2746F"/>
<path fill-rule="evenodd" clip-rule="evenodd" d="M178.167 67.3961C178.116 69.9433 181.205 72.075 185.068 72.1543C185.865 72.1701 186.623 72.0813 187.341 71.9322C187.657 69.071 187.761 66.1748 187.673 63.2787C186.921 63.0789 186.114 62.9456 185.258 62.9266C181.394 62.8473 178.22 64.8489 178.167 67.3961Z" fill="#E88881"/>
<path d="M102.349 71.9225C99.2765 71.8591 96.8232 69.8797 96.8738 67.5038C96.9118 65.721 98.3439 64.2206 100.355 63.6084" stroke="#D2746F" stroke-width="1.44" stroke-linecap="round"/>
<path fill-rule="evenodd" clip-rule="evenodd" d="M116.365 18.2282C116.365 18.2282 119.783 60.9089 101.542 54.5584C101.542 54.5584 89.5504 18.2282 122.065 3.09086C137.436 -4.06859 171.582 7.65236 181.212 36.3092C181.212 36.3092 144.745 48.2173 116.365 18.2282Z" fill="#F8E4BB"/>
<path fill-rule="evenodd" clip-rule="evenodd" d="M62.9445 324.774C63.444 317.298 65.7107 292.698 67.99 268.552C54.3676 267.607 40.4985 266.696 26.952 264.837C24.3944 283.626 21.8842 303.902 20.313 321.276C16.8734 359.344 62.2584 474.59 62.2584 474.59C75.59 463.437 81.7548 445.867 78.3404 428.794C71.7047 395.595 61.7779 342.132 62.9445 324.774Z" fill="#E68F88"/>
<path fill-rule="evenodd" clip-rule="evenodd" d="M289.219 242.627C289.219 242.627 283.127 340.981 249.689 340.366C235.431 340.103 212.941 305.409 211.148 297.815L229.845 290.199L242.668 289.133C253.081 278.878 274.282 242.354 274.282 242.354" fill="#E68F88"/>
<path fill-rule="evenodd" clip-rule="evenodd" d="M233.074 316.369C232.966 311.436 233.823 306.541 235.258 301.821C236.757 297.174 238.925 292.429 242.665 289.133C240.171 293.368 238.562 297.821 237.117 302.408C235.66 306.989 234.483 311.655 233.074 316.369Z" fill="#BF7564"/>
<path fill-rule="evenodd" clip-rule="evenodd" d="M269.173 272.616C269.173 272.616 258.099 227.489 240.29 191.536C222.112 154.835 156.115 132.884 156.166 132.894L155.17 133.978C138.889 151.384 107.246 137.258 105.096 133.924C103.721 133.924 39.7852 129.836 11.1777 288.79L44.7612 294.341C43.3418 354.069 41.6631 406.342 41.6631 406.342L212.947 395.82L206.018 299.509C217.731 296.403 269.173 272.616 269.173 272.616Z" fill="#B5D4C9"/>
<path fill-rule="evenodd" clip-rule="evenodd" d="M278.098 258.021C284.064 258.335 281.054 258.224 287.118 258.018C287.064 257.031 289.217 242.627 289.217 242.627C289.217 242.627 299.912 213.227 292.489 205.779L291.376 212.999C291.376 212.999 290.093 193.437 287.794 194.496C285.496 195.556 284.965 209.548 284.965 209.548C284.965 209.548 283.486 188.301 281.582 190.058C280.846 190.734 281.582 190.058 279.929 208.574C279.929 208.574 276.265 192.25 275.016 195.143C273.451 198.779 273.989 211.239 273.989 211.239C273.989 211.239 271.577 198.947 270.119 201.053C266.711 205.989 275.007 233.05 271.886 246.408C271.14 249.615 277.137 257.97 278.098 258.021Z" fill="#E68F88"/>
<path fill-rule="evenodd" clip-rule="evenodd" d="M266.154 255.858C266.154 255.858 264.624 242.278 257.359 222.09C243.171 182.661 211.87 151.768 172.413 137.988L172.28 137.944L144.09 226.738L92.8876 136.091C69.5249 142.547 50.095 159.984 39.7762 181.985C23.1188 217.5 1.04275 272.381 3.51496 309.343C7.69749 371.865 38.0279 458.226 38.0279 458.226L86.4226 435.647C86.4226 435.647 83.6753 427.171 80.457 413.572C80.457 413.572 138.488 418.707 157.857 418.041C172.292 417.543 215.174 410.752 215.174 410.752L206.802 307.246C216.22 328.175 231 351.471 250.183 351.471C285.002 351.471 290.405 277.679 290.405 277.679L266.154 255.858Z" fill="#2D3A4C"/>
<path fill-rule="evenodd" clip-rule="evenodd" d="M73.6452 285.066C71.331 301.802 66.4435 318.212 65.7828 335.157C65.0905 352.962 67.844 371.027 71.5397 388.391C73.5883 398.016 76.0637 407.564 79.2061 416.887C79.9364 419.059 83.3854 418.127 82.6457 415.935C76.9773 399.116 73.1836 381.514 70.9296 363.915C69.8452 355.452 69.1244 346.903 69.2287 338.364C69.333 330.297 70.3668 322.367 71.8464 314.453C73.6484 304.81 75.5705 295.236 76.7212 285.482C76.9267 283.744 73.8886 283.312 73.6452 285.066Z" fill="#192431"/>
<path fill-rule="evenodd" clip-rule="evenodd" d="M144.091 226.737C144.091 226.737 143.386 298.544 146.867 325.904C150.351 353.263 151.053 418.076 151.053 418.076L144.091 226.737ZM138.808 245.77C138.808 246.896 137.898 247.806 136.776 247.806C135.657 247.806 134.746 246.896 134.746 245.77C134.746 244.644 135.657 243.73 136.776 243.73C137.898 243.73 138.808 244.644 138.808 245.77ZM138.808 276.257C138.808 277.38 137.898 278.294 136.776 278.294C135.657 278.294 134.746 277.38 134.746 276.257C134.746 275.131 135.657 274.217 136.776 274.217C137.898 274.217 138.808 275.131 138.808 276.257ZM138.808 306.744C138.808 307.867 137.898 308.781 136.776 308.781C135.657 308.781 134.746 307.867 134.746 306.744C134.746 305.618 135.657 304.705 136.776 304.705C137.898 304.705 138.808 305.618 138.808 306.744ZM140.838 337.228C140.838 338.354 139.931 339.268 138.808 339.268C137.686 339.268 136.776 338.354 136.776 337.228C136.776 336.102 137.686 335.189 138.808 335.189C139.931 335.189 140.838 336.102 140.838 337.228ZM140.838 367.715C140.838 368.842 139.931 369.752 138.808 369.752C137.686 369.752 136.776 368.842 136.776 367.715C136.776 366.589 137.686 365.676 138.808 365.676C139.931 365.676 140.838 366.589 140.838 367.715ZM143.035 398.203C143.035 399.329 142.125 400.239 141.002 400.239C139.88 400.239 138.97 399.329 138.97 398.203C138.97 397.077 139.88 396.163 141.002 396.163C142.125 396.163 143.035 397.077 143.035 398.203Z" stroke="#192431" stroke-width="1.142"/>
<path fill-rule="evenodd" clip-rule="evenodd" d="M252.361 241.593L277.646 243.204C279.973 243.353 282.072 241.374 282.533 238.592L291.85 182.426C292.252 180.016 290.826 177.779 288.809 177.649L263.524 176.038C261.194 175.889 259.098 177.868 258.636 180.65L249.32 236.815C248.918 239.223 250.344 241.462 252.361 241.593Z" fill="#B93E1F"/>
<path fill-rule="evenodd" clip-rule="evenodd" d="M256.717 241.796L282.001 243.407C284.331 243.556 286.427 241.577 286.889 238.795L296.206 182.629C296.607 180.219 295.181 177.982 293.164 177.852L267.879 176.241C265.55 176.092 263.454 178.071 262.992 180.853L253.675 237.018C253.274 239.426 254.7 241.666 256.717 241.796Z" fill="#FF6414"/>
</svg>
