<svg width="408" height="514" viewBox="0 0 408 514" fill="none" xmlns="http://www.w3.org/2000/svg">
<path fill-rule="evenodd" clip-rule="evenodd" d="M195.765 415.875L272.906 420.234L264.234 532.028L187.27 668.4C182.076 677.603 183.941 689.558 191.604 696.195L302.724 792.433L277.996 894.16L110.391 761.416C78.8564 736.439 68.7905 689.742 86.6682 651.36L195.765 415.875Z" fill="#B17552"/>
<path fill-rule="evenodd" clip-rule="evenodd" d="M239.516 414.079L339.466 411.342L340.301 888.602L239.516 901.512V414.079Z" fill="#C5855B"/>
<path d="M305.799 430.346C305.799 430.346 304.695 497.61 323.97 504.221M323.97 429.004V890.194V429.004Z" stroke="#B17552" stroke-width="1.766" stroke-linecap="round"/>
<path fill-rule="evenodd" clip-rule="evenodd" d="M281.293 133.516C283.44 132.751 285.194 131.52 285.687 129.922C285.95 129.148 285.842 128.313 285.425 127.489C284.989 126.661 284.208 125.938 283.275 125.246C284.448 125.202 285.659 125.674 286.566 126.623C287.515 127.546 287.894 129.129 287.464 130.48C287.015 131.822 285.978 132.824 284.818 133.284C283.667 133.776 282.412 133.871 281.293 133.516Z" fill="#A55440"/>
<path fill-rule="evenodd" clip-rule="evenodd" d="M343.943 -138.103C343.943 -138.103 338.755 -154.636 334.999 -158.595C332.009 -161.751 334.958 -138.614 334.958 -138.614C324.051 -161.954 325.328 -161.437 324.051 -161.954C320.744 -163.296 328.866 -134.82 328.866 -134.82C328.866 -134.82 321.56 -152.822 318.067 -153.056C314.577 -153.291 324.734 -117.548 324.734 -117.548C324.734 -117.548 317.612 -122.322 309.977 -120.193C308.036 -119.651 307.021 -117.138 307.163 -115.641C317.368 -114.956 332.144 -98.0169 332.144 -98.0169L336.937 -88.4467C348.846 -62.8287 376.698 10.2155 345.716 79.6594C327.314 120.897 293.367 176.212 277.174 203.026L277.108 202.982L276.943 203.239C292.564 212.631 307.609 223.416 323.764 232.609C331.873 237.221 340.247 241.025 348.802 244.263C359.317 212.894 390.087 138.597 399.707 109.88C418.34 54.2667 401.999 -11.5388 378.276 -64.272C378.295 -64.272 378.31 -64.272 378.326 -64.272L377.596 -65.8041C375.383 -70.6638 358.833 -105.091 358.833 -105.091C358.833 -105.091 346.456 -150.639 344.164 -153.332C341.875 -156.029 343.943 -138.103 343.943 -138.103Z" fill="#BB6952"/>
<path fill-rule="evenodd" clip-rule="evenodd" d="M64.6465 72.3319L68.1778 151.333C68.1778 151.333 105.514 149.979 109.69 149.465C113.869 148.951 109.899 75.5516 109.355 70.3208C108.811 65.0899 75.019 69.2359 64.6465 72.3319Z" fill="#FF6414"/>
<path fill-rule="evenodd" clip-rule="evenodd" d="M104.363 76.4843C104.455 78.5462 102.861 80.294 100.806 80.386C98.7514 80.478 97.0127 78.8824 96.9178 76.8173C96.8261 74.7586 98.4195 73.0108 100.474 72.9188C102.529 72.8268 104.271 74.4224 104.363 76.4843Z" fill="#2B2038"/>
<path fill-rule="evenodd" clip-rule="evenodd" d="M141.692 243.34L48.4589 313.657C54.162 288.229 75.2454 187.825 76.08 186.176C76.08 186.15 76.0768 186.128 76.0768 186.103C79.5638 174.261 83.1362 160.98 83.1362 160.98C83.1362 160.98 102.234 123.409 102.342 120.228C102.452 117.046 93.1073 130.099 93.1073 130.099C93.1073 130.099 99.5818 116.034 99.4933 111.114C99.4206 107.203 87.5337 124.228 87.5337 124.228C94.3402 102.162 94.865 103.288 94.3402 102.162C92.9745 99.244 81.2868 122.965 81.2868 122.965C81.2868 122.965 87.2555 106.629 85.1153 104.323C82.9718 102.02 68.2745 131.774 68.2745 131.774C68.2745 131.774 66.4662 124.247 60.2066 120.941C58.6101 120.101 56.4446 121.125 55.6479 122.201C61.9106 128.938 59.3404 151.219 59.3404 151.219C59.3372 151.222 48.4525 173.63 37.2486 202.22C37.4288 202.204 37.6058 202.189 37.7828 202.173C19.5163 252.635 -22.78 387.139 15.5772 382.996C44.7506 379.846 102.876 349.13 145.39 327.366C143.332 295.823 142.299 267.471 141.692 243.34Z" fill="#BB6952"/>
<path fill-rule="evenodd" clip-rule="evenodd" d="M345.433 221.443C330.53 208.393 282.436 198.902 282.379 198.794C272.683 180.304 237.888 180.726 228.682 193.89C221.493 195.819 212.54 197.893 203.742 200.463C208.475 250.573 206.268 302.012 205.892 352.458C252.409 353.428 298.916 355.122 345.442 355.417C347.826 305.714 351.828 245.865 353.362 228.495C350.608 226.017 347.949 223.651 345.433 221.443Z" fill="#BB6952"/>
<path fill-rule="evenodd" clip-rule="evenodd" d="M198.344 84.7728C198.344 84.7728 187.111 110.264 202.684 118.213L220.995 84.5063L198.344 84.7728Z" fill="#172133"/>
<path fill-rule="evenodd" clip-rule="evenodd" d="M258.571 68.2145C261.615 69.2677 264.555 70.8061 267.334 72.8966C292.148 91.5708 283.208 134.87 265.637 156.079C255.912 167.816 240.428 174.623 225.74 171.07C204.264 165.878 194.973 143.333 196.592 122.042C197.799 106.175 204.552 90.4986 216.072 79.8403C227.58 69.1915 244.177 63.2375 258.571 68.2145Z" fill="#BB6952"/>
<path fill-rule="evenodd" clip-rule="evenodd" d="M271.449 142.638C275.809 146.026 282.767 146.753 287.743 144.282C292.719 141.807 296.386 136.358 297.025 130.486C297.597 125.22 295.58 119.561 291.442 116.9C287.304 114.235 280.586 115.263 277.883 119.733L271.449 142.638Z" fill="#BB6952"/>
<path fill-rule="evenodd" clip-rule="evenodd" d="M243.217 207.705C238.216 206.601 233.344 203.331 228.896 199.21L228.779 135.07L275.464 128.348L279.928 195.153C270.171 201.951 254.399 210.176 243.217 207.705Z" fill="#BB6952"/>
<path fill-rule="evenodd" clip-rule="evenodd" d="M228.864 181.83L228.652 171.641C228.652 171.641 249.565 175.362 265.634 156.079C265.634 156.079 257.541 176.517 228.864 181.83Z" fill="#111029"/>
<path fill-rule="evenodd" clip-rule="evenodd" d="M236.78 125.573C236.84 125.535 236.9 125.5 236.957 125.462C238.162 124.31 240.197 125.957 238.984 127.118C236.695 129.306 232.879 126.47 235.231 124.003C237.526 121.604 241.313 124.945 239.157 127.498C236.998 130.052 233.027 126.293 235.746 124.174C238.5 122.026 240.947 126.664 237.697 128.028C236.141 128.678 235.231 126.223 236.78 125.573Z" fill="#172133"/>
<path fill-rule="evenodd" clip-rule="evenodd" d="M230.758 113.744C236.268 113.354 241.918 113.515 247.39 114.302C249.808 114.648 249.167 118.407 246.742 118.058C241.579 117.319 236.294 117.176 231.093 117.541C228.662 117.712 228.308 113.915 230.758 113.744Z" fill="#172133"/>
<path fill-rule="evenodd" clip-rule="evenodd" d="M204.235 119.78C204.292 119.742 204.352 119.707 204.412 119.669C205.613 118.518 207.649 120.164 206.435 121.325C204.146 123.514 200.33 120.678 202.686 118.213C204.978 115.812 208.765 119.156 206.609 121.706C204.45 124.259 200.479 120.501 203.198 118.382C205.951 116.234 208.398 120.872 205.148 122.236C203.596 122.886 202.683 120.431 204.235 119.78Z" fill="#172133"/>
<path fill-rule="evenodd" clip-rule="evenodd" d="M235.473 135.19C235.837 137.696 239.213 139.279 243.016 138.724C246.816 138.169 249.605 135.688 249.241 133.182C248.878 130.673 245.501 129.09 241.698 129.646C237.898 130.201 235.11 132.684 235.473 135.19Z" fill="#E88881"/>
<path fill-rule="evenodd" clip-rule="evenodd" d="M217.298 135.844C216.435 135.435 215.644 134.946 214.911 134.401C214.149 133.887 213.441 133.316 212.768 132.71L211.822 131.86L213.039 131.228C213.944 130.759 214.813 129.934 215.644 129.03C216.523 128.152 217.307 127.143 218.259 126.163C218.113 127.536 217.595 128.792 216.915 129.991C216.191 131.146 215.214 132.269 213.748 132.887L214.016 131.409C214.645 132.066 215.237 132.757 215.777 133.503C216.343 134.22 216.855 134.997 217.298 135.844Z" fill="#A55440"/>
<path fill-rule="evenodd" clip-rule="evenodd" d="M212.459 142.721C214.033 143.638 215.649 144.38 217.296 144.646C218.937 144.9 220.546 144.745 222.01 144.088C223.53 143.52 224.744 142.299 226.04 141.179C227.245 139.923 228.32 138.524 229.527 137.122C229.265 138.001 228.886 138.832 228.557 139.707C228.133 140.523 227.615 141.297 227.134 142.109C225.977 143.574 224.621 145.027 222.749 145.801C220.919 146.584 218.766 146.702 216.932 146.029C215.092 145.404 213.534 144.221 212.459 142.721Z" fill="#A55440"/>
<path fill-rule="evenodd" clip-rule="evenodd" d="M214.836 111.152C210.239 109.49 205.336 108.301 200.382 107.723C198.191 107.469 197.483 111.073 199.68 111.327C204.353 111.869 208.937 112.992 213.274 114.559C215.304 115.295 216.878 111.891 214.836 111.152Z" fill="#172133"/>
<path fill-rule="evenodd" clip-rule="evenodd" d="M205.912 129.014C205.966 131.546 202.893 133.665 199.055 133.744C198.261 133.76 197.509 133.671 196.795 133.522C196.478 130.676 196.377 127.796 196.463 124.922C197.212 124.722 198.012 124.589 198.862 124.57C202.703 124.491 205.861 126.48 205.912 129.014Z" fill="#E88881"/>
<path fill-rule="evenodd" clip-rule="evenodd" d="M248.911 52.411C248.911 52.411 228.002 34.0223 215.789 55.6561C215.789 55.6561 198.345 51.3293 198.345 70.2605C198.345 70.2605 181.646 100.545 215.789 89.7309C215.789 89.7309 225.081 100.887 242.358 92.0656C242.358 92.0656 251.82 98.1116 261.253 88.646C261.253 88.646 253.995 110.99 268.262 107.71C268.262 107.71 265.755 138.093 275.464 128.348C275.464 128.348 272.492 118.651 284.287 115.447C296.085 112.24 297.445 92.9918 286.737 87.6976C286.737 87.6976 288.745 63.7672 273.652 63.7672C273.652 63.7672 268.37 43.7575 248.911 52.411Z" fill="#172133"/>
<path fill-rule="evenodd" clip-rule="evenodd" d="M97.6602 273.695L165.453 219.712C177.972 211.121 191.611 204.235 206.071 199.645C213.01 197.443 217.983 196.102 226.455 194.357C226.455 194.357 250.03 235.766 280.819 196.99C293.964 175.27 314.883 140.694 331.67 108.456C350.983 117.957 370.593 126.854 390.405 135.343C379.11 164.989 362.664 205.811 353.047 232.2C350.129 268.074 345.485 397.048 344.021 425.547L172.263 430.276L175.756 312.03C175.756 312.03 146.75 328.388 101.018 349.882C99.1144 322.041 97.9194 301.628 97.6602 273.695Z" fill="#F4DABA"/>
<path fill-rule="evenodd" clip-rule="evenodd" d="M97.6602 273.695L165.453 219.712C177.972 211.121 191.611 204.235 206.071 199.645C213.01 197.443 217.983 196.102 226.455 194.357C226.455 194.357 250.03 235.766 280.819 196.99C293.964 175.27 314.883 140.694 331.67 108.456C350.983 117.957 370.593 126.854 390.405 135.343C379.11 164.989 362.664 205.811 353.047 232.2C350.129 268.074 345.485 397.048 344.021 425.547L172.263 430.276L175.756 312.03C175.756 312.03 146.75 328.388 101.018 349.882C99.1144 322.041 97.9194 301.628 97.6602 273.695Z" fill="black"/>
<path d="M257.653 244.03C283.843 244.03 305.074 265.333 305.074 291.612C305.074 317.891 283.843 339.194 257.653 339.194C231.463 339.194 210.232 317.891 210.232 291.612C210.232 265.333 231.463 244.03 257.653 244.03ZM244.848 272.309C241.36 272.309 238.533 275.146 238.533 278.646V304.461C238.533 307.96 241.36 310.797 244.848 310.797C248.336 310.797 251.163 307.96 251.163 304.461L251.161 297.89H264.261L264.261 304.578C264.261 307.972 266.919 310.742 270.261 310.907L270.576 310.915C274.063 310.915 276.891 308.078 276.891 304.578V278.763C276.891 275.264 274.063 272.427 270.576 272.427C267.088 272.427 264.261 275.264 264.261 278.763L264.261 285.215H251.161L251.163 278.646C251.163 275.252 248.504 272.482 245.163 272.317L244.848 272.309Z" fill="#252629"/>
</svg>
